<svg width="11" height="11" viewBox="0 0 11 11" fill="none" xmlns="http://www.w3.org/2000/svg">
<path d="M10.1957 0.804504C9.12301 -0.268168 7.37832 -0.268168 6.30565 0.804504L4.73087 2.37927C4.66395 2.44619 4.64513 2.54738 4.6832 2.63377C4.72125 2.72039 4.80183 2.77591 4.90345 2.77032L4.9733 2.76517C5.09217 2.75421 5.21371 2.76315 5.33392 2.77434C5.53561 2.79269 5.74691 2.83544 5.98016 2.90484C6.0612 2.92967 6.14828 2.90686 6.2076 2.8473L7.27804 1.77687C7.79736 1.25754 8.70395 1.25754 9.22327 1.77687C9.75961 2.3132 9.75961 3.18575 9.22327 3.72208L7.68983 5.25551C7.56915 4.78244 7.33173 4.35849 6.98658 4.01352C6.53485 3.56157 5.94903 3.29093 5.29249 3.23073C4.72258 3.18104 4.16093 3.3017 3.66916 3.58576C3.43433 3.72187 3.25236 3.85773 3.09655 4.01354L0.804343 6.30573C-0.268114 7.37816 -0.268114 9.12327 0.804343 10.1957C1.3407 10.732 2.04492 11 2.74937 11C3.45382 11 4.15803 10.732 4.69439 10.1957L6.26872 8.62142C6.33543 8.55471 6.35447 8.45399 6.31663 8.36758C6.2788 8.28117 6.18837 8.22297 6.09792 8.23036L6.02517 8.23552C5.90811 8.24693 5.78678 8.23664 5.66613 8.22568C5.46488 8.20733 5.25335 8.16458 5.01966 8.09518C4.93817 8.07078 4.85178 8.09316 4.79247 8.15293L3.72203 9.22337C3.20271 9.74269 2.29611 9.74269 1.77679 9.22337C1.24045 8.68703 1.24045 7.81449 1.77679 7.27815L3.31024 5.74473C3.43092 6.21779 3.66834 6.64174 4.01349 6.9867C4.46543 7.43864 5.05124 7.70928 5.70779 7.76926C5.79329 7.77711 5.87859 7.78091 5.96364 7.78091C6.4447 7.78091 6.91297 7.656 7.33091 7.41447C7.56573 7.27837 7.74771 7.1425 7.90351 6.9867L10.1957 4.69451C11.2681 3.62205 11.2681 1.87694 10.1957 0.804504ZM6.35249 6.35312C5.85815 6.50332 5.33877 6.367 4.98585 6.01427C4.628 5.65643 4.50271 5.13015 4.64747 4.64731C5.1427 4.49786 5.66164 4.63358 6.0142 4.98592C6.3721 5.34383 6.49734 5.87022 6.35249 6.35312Z" fill="#9EFF23"/>
</svg>
