<svg width="13" height="13" viewBox="0 0 13 13" fill="none" xmlns="http://www.w3.org/2000/svg">
<path d="M8.87917 7.7142C10.4397 5.51062 9.91777 2.45932 7.7142 0.899179C5.51062 -0.660957 2.45932 -0.139421 0.899179 2.06453C-0.660957 4.26811 -0.139421 7.31904 2.06453 8.87918C3.63734 9.99271 5.71678 10.0784 7.3757 9.09875L10.9802 12.6817C11.3694 13.0914 12.017 13.1078 12.4267 12.7186C12.8364 12.3297 12.8528 11.6822 12.4639 11.2725C12.4516 11.2595 12.4397 11.2475 12.4267 11.2352L8.87917 7.7142ZM4.88619 8.04822C3.14488 8.04859 1.73312 6.63795 1.732 4.89663C1.73162 3.15532 3.14227 1.74355 4.88396 1.74281C6.62303 1.74206 8.03405 3.15047 8.03741 4.88955C8.04039 6.63124 6.63049 8.04524 4.88843 8.04822C4.88769 8.04822 4.88731 8.04822 4.88619 8.04822Z" fill="white"/>
</svg>
