<svg width="32" height="33" viewBox="0 0 32 33" fill="none" xmlns="http://www.w3.org/2000/svg">
<path d="M24.4045 14.1121C24.106 14.4915 23.509 14.5775 23.0895 14.3125L21.9037 13.5679C21.9037 13.5679 21.8714 13.5607 21.8552 13.5536C21.831 13.5464 21.8149 13.5321 21.7907 13.5249C21.7665 13.5178 21.7423 13.5106 21.71 13.5106C21.6939 13.5106 21.6858 13.5035 21.6697 13.5035C21.6536 13.5035 21.6455 13.5035 21.6374 13.5035C21.6132 13.5035 21.589 13.5035 21.5648 13.5178C21.5406 13.5178 21.5164 13.5321 21.4922 13.5393C21.468 13.5464 21.4519 13.5607 21.4277 13.5751C21.4116 13.5894 21.3874 13.6037 21.3712 13.618C21.3632 13.6252 21.347 13.6323 21.339 13.6395C21.3309 13.6538 21.3309 13.6681 21.3228 13.6753C21.3067 13.6968 21.2986 13.7183 21.2905 13.7469C21.2905 13.7612 21.2825 13.7827 21.2825 13.797C21.2825 13.8113 21.2744 13.8328 21.2744 13.8471V23.3913C21.2744 23.8567 20.8469 24.229 20.3306 24.229H11.5939C11.0695 24.229 10.65 23.8495 10.65 23.3913V13.8686C10.65 13.8686 10.6419 13.8328 10.6419 13.8185C10.6419 13.8042 10.6419 13.7827 10.6339 13.7684C10.6258 13.7469 10.6177 13.7183 10.6016 13.6968C10.6016 13.6825 10.5935 13.6681 10.5855 13.661C10.5774 13.6538 10.5693 13.6467 10.5532 13.6395C10.5371 13.6252 10.5209 13.6109 10.4967 13.5965C10.4725 13.5822 10.4564 13.5679 10.4322 13.5607C10.408 13.5464 10.3838 13.5393 10.3596 13.5393C10.3354 13.5393 10.3112 13.5249 10.287 13.5249C10.2709 13.5249 10.2628 13.5249 10.2547 13.5249C10.2386 13.5249 10.2305 13.5249 10.2144 13.5321C10.1902 13.5321 10.1579 13.5321 10.1337 13.5464C10.1095 13.5464 10.0853 13.5607 10.0692 13.5751C10.053 13.5751 10.0369 13.5822 10.0208 13.5894L8.84297 14.3269C8.41541 14.5989 7.81844 14.4987 7.51996 14.1121L6.72938 13.0954C6.4551 12.7445 6.5277 12.272 6.88266 11.9856L9.48834 9.94499C10.0772 9.4796 10.8436 9.229 11.6342 9.229H13.5622C13.9091 9.229 14.2237 9.39368 14.3932 9.6586L15.6194 11.6204C15.692 11.735 15.821 11.8137 15.9743 11.8137C16.1195 11.8137 16.2567 11.735 16.3212 11.6204L17.5474 9.6586C17.7168 9.39368 18.0314 9.229 18.3783 9.229H20.3064C21.0969 9.229 21.8552 9.48676 22.4522 9.94499L25.1466 12.05C25.4774 12.3078 25.5339 12.7445 25.2757 13.0667L24.4287 14.1264L24.4045 14.1121Z" stroke="#4E4E4E" stroke-miterlimit="10"/>
</svg>
