<svg width="9" height="12" viewBox="0 0 9 12" fill="none" xmlns="http://www.w3.org/2000/svg">
<path d="M8.60511 0.673484C8.4984 0.668768 8.42673 0.662818 8.35502 0.662774C6.79857 0.662245 5.24218 0.661142 3.68569 0.662817C2.72231 0.663831 1.94096 1.33468 1.79017 2.2867C1.75345 2.51823 1.72026 2.75038 1.6876 2.98254C1.50292 4.29603 1.31961 5.60974 1.13448 6.92323C0.964655 8.12776 0.792314 9.33193 0.622663 10.5366C0.555402 11.0142 0.492415 11.4924 0.42749 11.9704C0.462972 11.9822 0.483292 11.9949 0.503656 11.9949C1.20844 11.9967 1.91319 11.9951 2.61798 12C2.75982 12.0009 2.75898 11.9132 2.77269 11.814C2.89482 10.9284 3.02027 10.0432 3.1443 9.15779C3.34458 7.72789 3.54385 6.29786 3.74484 4.8681C3.83538 4.22423 3.92904 3.58075 4.02398 2.91783C4.11676 2.91783 4.19593 2.91783 4.27509 2.91783C5.54521 2.91783 6.81532 2.91501 8.08544 2.92131C8.25108 2.92215 8.31393 2.87944 8.3306 2.70635C8.36564 2.34201 8.43034 1.98058 8.48041 1.61761C8.52304 1.30859 8.56222 0.999036 8.60511 0.673484ZM5.92264 8.65452C6.85755 8.65351 7.61779 7.89582 7.61787 6.96501C7.61805 6.04156 6.84671 5.27727 5.91651 5.27925C4.98384 5.28119 4.22237 6.04169 4.2229 6.9707C4.22339 7.9001 4.98596 8.65549 5.92264 8.65452Z" fill="#003160"/>
</svg>
