<svg width="222" height="44" viewBox="0 0 222 44" fill="none" xmlns="http://www.w3.org/2000/svg">
    <rect x="8" width="213" height="44" fill="#2F2F2F"/>
    <path fill-rule="evenodd" clip-rule="evenodd" d="M8 44H154L174 0H8V44Z" fill="#A1F339" fill-opacity="0.6"/>
    <path fill-rule="evenodd" clip-rule="evenodd" d="M0 44H83L103 0H0V44Z" fill="#A1F339"/>
    <g filter="url(#filter0_d)">
        <path d="M23.3045 18.2628V22.2188H20.0217V33.6229H15.4013V22.2188H13V18.2628H15.4013V16.9339C15.4013 13.4106 17.4987 11 21.1767 11C22.119 11 22.9397 11.1236 23.3653 11.34V15.1723C23.1221 15.1105 22.727 15.0177 21.9974 15.0177C21.1767 15.0177 20.0217 15.3886 20.0217 17.0884V18.2628H23.3045Z" fill="white"/>
        <path fill-rule="evenodd" clip-rule="evenodd" d="M187.016 23.9163L188.945 25.4359C188.947 25.4787 188.95 25.5211 188.953 25.5634C188.958 25.6369 188.963 25.7107 188.963 25.7852C188.963 27.8751 188.148 29.768 186.826 31.173L184.996 31.044L184.209 33.0096C183.281 33.4045 182.261 33.6229 181.19 33.6229C180.168 33.6229 179.194 33.4195 178.301 33.0582L177.515 31.0962L175.605 31.2306C174.252 29.8208 173.415 27.9027 173.415 25.7852C173.415 25.7076 173.42 25.6315 173.426 25.5554C173.428 25.5121 173.431 25.4686 173.433 25.4251L175.349 23.9157L174.555 21.7148C175.494 20.161 176.95 18.9648 178.687 18.3688L181.021 20.0787L183.464 18.2896C185.297 18.8544 186.835 20.0871 187.816 21.7016L187.016 23.9163ZM178.788 29.3983H183.592L185.077 24.7907L181.19 21.9441L177.303 24.7907L178.788 29.3983Z" fill="white"/>
        <path d="M148.366 30.6544C148.366 32.3067 149.723 33.7486 151.374 33.7486C153.026 33.7486 154.412 32.3067 154.412 30.6544C154.412 28.9721 153.026 27.5902 151.374 27.5902C149.723 27.5902 148.366 28.9721 148.366 30.6544Z" fill="white"/>
        <path d="M167.132 24.3706C166.8 23.2015 165.897 22.094 164.12 22.094C162.223 22.094 160.687 23.4476 160.687 25.9088C160.687 28.3393 162.283 29.6929 164.18 29.6929C165.957 29.6929 166.951 28.5546 167.282 27.4163L171.318 28.6777C170.655 31.3542 168.186 34 164.18 34C159.724 34 156.14 30.6466 156.14 25.9088C156.14 21.1403 159.633 17.7869 164.03 17.7869C168.156 17.7869 170.565 20.3711 171.227 23.1092L167.132 24.3706Z" fill="white"/>
        <path d="M196.066 33.6229V24.777C196.066 23.3852 196.95 22.1171 198.566 22.1171C200.243 22.1171 201.005 23.2615 201.005 24.7152V33.6229H205.579V24.7461C205.579 23.3852 206.463 22.1171 208.109 22.1171C209.756 22.1171 210.518 23.2615 210.518 24.7152V33.6229H215V23.6635C215 19.488 212.256 17.7869 209.39 17.7869C207.347 17.7869 205.883 18.4673 204.694 20.1994C203.932 18.6838 202.377 17.7869 200.212 17.7869C198.566 17.7869 196.615 18.6529 195.852 20.0138V18.2508H191.431V33.6229H196.066Z" fill="white"/>
        <path d="M39.9004 33.6598H35.4346C35.3735 33.3815 35.3123 32.5156 35.3123 32.1135C34.517 33.4433 32.7735 34 31.2441 34C27.543 34 25.463 31.2785 25.463 28.0004V18.2896H30.1124V27.0107C30.1124 28.4952 30.9076 29.6704 32.5594 29.6704C34.1194 29.6704 35.0982 28.588 35.0982 27.0417V18.2896H39.7475V30.9074C39.7475 32.2991 39.8698 33.4124 39.9004 33.6598Z" fill="white"/>
        <path d="M49.1511 13.765H44.9932V15.7296C44.9932 17.1417 44.2289 18.2161 42.6391 18.2161H41.8748V22.2987H44.5652V28.8371C44.5652 31.8761 46.4913 33.7486 49.6403 33.7486C51.1078 33.7486 51.8721 33.411 52.0555 33.3189V29.4511C51.7804 29.5125 51.3218 29.6046 50.8326 29.6046C49.8237 29.6046 49.1511 29.2669 49.1511 28.0083V22.2987H52.1167V18.2161H49.1511V13.765Z" fill="white"/>
        <path fill-rule="evenodd" clip-rule="evenodd" d="M58.8034 31.9263V33.6595H54.3378V11.2514H58.8642V19.7318C59.5021 18.7723 61.1729 17.9057 63.2386 17.9057C67.6131 17.9057 70.256 21.3103 70.256 25.9219C70.256 30.6264 67.2789 34 63.0563 34C61.0514 34 59.5021 33.1024 58.8034 31.9263ZM62.2361 29.7907C64.0284 29.7907 65.6385 28.5218 65.6385 25.9529C65.6385 23.353 64.0284 22.146 62.2361 22.146C60.4438 22.146 58.8034 23.353 58.8034 25.9529C58.8034 28.4908 60.4438 29.7907 62.2361 29.7907Z" fill="white"/>
        <path fill-rule="evenodd" clip-rule="evenodd" d="M79.9426 17.7869C75.4115 17.7869 71.8601 21.1403 71.8601 25.8781C71.8601 30.6159 75.4115 34 79.9426 34C84.5043 34 88.025 30.6159 88.025 25.8781C88.025 21.1403 84.5043 17.7869 79.9426 17.7869ZM79.9426 29.6929C78.1975 29.6929 76.5136 28.4315 76.5136 25.8781C76.5136 23.2938 78.1975 22.094 79.9426 22.094C81.7183 22.094 83.3715 23.2938 83.3715 25.8781C83.3715 28.4623 81.7183 29.6929 79.9426 29.6929Z" fill="white"/>
        <path d="M95.3054 11.2514V33.6229H90.6164V11.2514H95.3054Z" fill="white"/>
        <path d="M134.299 28.847H129.61V20.1749H134.299V21.6831H141.086V20.1749L134.299 20.1749V15.3989L145.775 15.3989V24.071H141.086V26.459H134.299V28.847Z" fill="white"/>
        <path d="M134.299 33.6229V28.847H141.209V27.2131H145.898V33.6229H134.299Z" fill="white"/>
        <path d="M103.943 20.1749H110.73V33.6229H115.419V20.1749H122.206V33.6229H126.895V20.1749H122.206V15.3989L115.419 15.3989V20.1749H110.73V15.3989L99.2541 15.3989V33.6229H103.943V20.1749Z" fill="white"/>
    </g>
    <defs>
        <filter id="filter0_d" x="6" y="4" width="216" height="37" filterUnits="userSpaceOnUse" color-interpolation-filters="sRGB">
            <feFlood flood-opacity="0" result="BackgroundImageFix"/>
            <feColorMatrix in="SourceAlpha" type="matrix" values="0 0 0 0 0 0 0 0 0 0 0 0 0 0 0 0 0 0 127 0"/>
            <feOffset/>
            <feGaussianBlur stdDeviation="3.5"/>
            <feColorMatrix type="matrix" values="0 0 0 0 0 0 0 0 0 0 0 0 0 0 0 0 0 0 0.25 0"/>
            <feBlend mode="normal" in2="BackgroundImageFix" result="effect1_dropShadow"/>
            <feBlend mode="normal" in="SourceGraphic" in2="effect1_dropShadow" result="shape"/>
        </filter>
    </defs>
</svg>
